<?xml version="1.0" encoding="UTF-8" standalone="no"?>
<!DOCTYPE svg PUBLIC "-//W3C//DTD SVG 1.1//EN" "http://www.w3.org/Graphics/SVG/1.1/DTD/svg11.dtd">
<svg width="100%" height="100%" viewBox="0 0 40 40" version="1.1" xmlns="http://www.w3.org/2000/svg" xmlns:xlink="http://www.w3.org/1999/xlink" xml:space="preserve" xmlns:serif="http://www.serif.com/" style="fill-rule:evenodd;clip-rule:evenodd;stroke-linejoin:round;stroke-miterlimit:2;">
    <g transform="matrix(1,0,0,1,-24.7147,-12.6387)">
        <g transform="matrix(-1,0,0,1,161.594,-94.6614)">
            <path d="M101.67,140.8L111.86,128.43C112.364,127.816 112.364,126.924 111.86,126.31L101.57,113.91C101.332,113.599 100.961,113.418 100.57,113.42C100.231,113.416 99.904,113.545 99.66,113.78C99.384,114.042 99.216,114.4 99.19,114.78C99.146,115.166 99.27,115.552 99.53,115.84L109.05,127.3C109.102,127.368 109.102,127.462 109.05,127.53L99.68,138.9C99.417,139.168 99.263,139.525 99.25,139.9C99.248,140.285 99.416,140.651 99.71,140.9C99.964,141.125 100.291,141.249 100.63,141.25C101.025,141.257 101.405,141.093 101.67,140.8Z" style="fill:url(#_Linear1);fill-rule:nonzero;"/>
        </g>
        <g transform="matrix(-1,0,0,1,161.594,-94.6614)">
            <path d="M134.11,138.86L124.71,127.46C124.651,127.395 124.651,127.295 124.71,127.23L134.21,115.79C134.482,115.5 134.614,115.105 134.57,114.71C134.544,114.33 134.376,113.972 134.1,113.71C133.856,113.475 133.529,113.346 133.19,113.35C132.799,113.348 132.428,113.529 132.19,113.84L121.9,126.24C121.396,126.854 121.396,127.746 121.9,128.36L132.12,140.76C132.616,141.31 133.474,141.36 134.03,140.87C134.332,140.626 134.509,140.258 134.51,139.87C134.51,139.495 134.366,139.134 134.11,138.86Z" style="fill:url(#_Linear2);fill-rule:nonzero;"/>
        </g>
    </g>
    <defs>
        <linearGradient id="_Linear1" x1="0" y1="0" x2="1" y2="0" gradientUnits="userSpaceOnUse" gradientTransform="matrix(254.74,0,0,254.74,82.39,127.32)"><stop offset="0" style="stop-color:rgb(255,219,157);stop-opacity:1"/><stop offset="0.25" style="stop-color:rgb(255,83,64);stop-opacity:1"/><stop offset="0.37" style="stop-color:rgb(193,83,102);stop-opacity:1"/><stop offset="0.75" style="stop-color:rgb(3,85,216);stop-opacity:1"/><stop offset="0.81" style="stop-color:rgb(3,88,216);stop-opacity:1"/><stop offset="0.86" style="stop-color:rgb(3,99,216);stop-opacity:1"/><stop offset="0.9" style="stop-color:rgb(2,116,216);stop-opacity:1"/><stop offset="0.99" style="stop-color:rgb(0,172,216);stop-opacity:1"/><stop offset="1" style="stop-color:rgb(0,180,216);stop-opacity:1"/></linearGradient>
        <linearGradient id="_Linear2" x1="0" y1="0" x2="1" y2="0" gradientUnits="userSpaceOnUse" gradientTransform="matrix(254.74,0,0,254.74,82.39,127.32)"><stop offset="0" style="stop-color:rgb(255,219,157);stop-opacity:1"/><stop offset="0.25" style="stop-color:rgb(255,83,64);stop-opacity:1"/><stop offset="0.37" style="stop-color:rgb(193,83,102);stop-opacity:1"/><stop offset="0.75" style="stop-color:rgb(3,85,216);stop-opacity:1"/><stop offset="0.81" style="stop-color:rgb(3,88,216);stop-opacity:1"/><stop offset="0.86" style="stop-color:rgb(3,99,216);stop-opacity:1"/><stop offset="0.9" style="stop-color:rgb(2,116,216);stop-opacity:1"/><stop offset="0.99" style="stop-color:rgb(0,172,216);stop-opacity:1"/><stop offset="1" style="stop-color:rgb(0,180,216);stop-opacity:1"/></linearGradient>
    </defs>
</svg>
