<?xml version="1.0" encoding="UTF-8" standalone="no"?>
<!DOCTYPE svg PUBLIC "-//W3C//DTD SVG 1.1//EN" "http://www.w3.org/Graphics/SVG/1.1/DTD/svg11.dtd">
<svg width="100%" height="100%" viewBox="0 0 300 50" version="1.1" xmlns="http://www.w3.org/2000/svg" xmlns:xlink="http://www.w3.org/1999/xlink" xml:space="preserve" xmlns:serif="http://www.serif.com/" style="fill-rule:evenodd;clip-rule:evenodd;stroke-linejoin:round;stroke-miterlimit:2;">
    <g transform="matrix(1,0,0,1,-66.5556,-102.53)">
        <path d="M331.91,117.42C331.194,117.423 330.528,117.04 330.17,116.42C329.994,116.116 329.901,115.771 329.9,115.42C329.901,115.069 329.994,114.724 330.17,114.42C330.751,113.492 331.973,113.178 332.93,113.71C333.227,113.881 333.475,114.126 333.65,114.42C333.833,114.721 333.93,115.067 333.93,115.42C333.931,115.773 333.834,116.119 333.65,116.42C333.474,116.716 333.226,116.964 332.93,117.14C332.62,117.319 332.268,117.416 331.91,117.42ZM331.91,117.08C332.205,117.085 332.496,117.009 332.75,116.86C332.997,116.725 333.199,116.519 333.33,116.27C333.482,116.006 333.558,115.705 333.55,115.4C333.558,115.092 333.482,114.788 333.33,114.52C333.193,114.278 332.992,114.077 332.75,113.94C332.226,113.659 331.594,113.659 331.07,113.94C330.825,114.077 330.621,114.277 330.48,114.52C330.328,114.788 330.252,115.092 330.26,115.4C330.252,115.705 330.328,116.006 330.48,116.27C330.615,116.52 330.82,116.725 331.07,116.86C331.324,117.009 331.615,117.085 331.91,117.08ZM331.39,116.47C331.351,116.483 331.309,116.483 331.27,116.47C331.259,116.438 331.259,116.402 331.27,116.37L331.27,114.5C331.258,114.471 331.258,114.439 331.27,114.41C331.293,114.383 331.325,114.365 331.36,114.36L332,114.36C332.196,114.351 332.391,114.399 332.56,114.5C332.701,114.609 332.777,114.783 332.76,114.96C332.768,115.102 332.713,115.241 332.61,115.34C332.482,115.437 332.33,115.496 332.17,115.51L332.17,115.43C332.286,115.451 332.392,115.511 332.47,115.6C332.57,115.709 332.624,115.852 332.62,116C332.605,116.066 332.605,116.134 332.62,116.2C332.635,116.238 332.669,116.265 332.71,116.27C332.751,116.275 332.77,116.27 332.78,116.27C332.788,116.289 332.788,116.311 332.78,116.33C332.778,116.382 332.747,116.428 332.7,116.45C332.641,116.466 332.579,116.466 332.52,116.45C332.432,116.447 332.352,116.397 332.31,116.32C332.244,116.205 332.213,116.073 332.22,115.94C332.223,115.847 332.195,115.755 332.14,115.68C332.089,115.604 332.001,115.562 331.91,115.57L331.47,115.57L331.56,115.48L331.56,116.28C331.561,116.319 331.542,116.357 331.51,116.38C331.487,116.428 331.442,116.462 331.39,116.47ZM331.93,115.29C332.046,115.297 332.16,115.269 332.26,115.21C332.35,115.155 332.404,115.056 332.4,114.95C332.411,114.853 332.369,114.757 332.29,114.7C332.188,114.681 332.082,114.681 331.98,114.7L331.41,114.7L331.56,114.58L331.56,115.42L331.46,115.34L331.93,115.29Z" style="fill-rule:nonzero;stroke:black;stroke-width:1px;"/>
        <path d="M169.29,116.35C168.408,115.431 167.355,114.694 166.19,114.18C164.977,113.649 163.665,113.379 162.34,113.39L154.83,113.39C154.457,113.375 154.094,113.516 153.83,113.78C153.566,114.046 153.418,114.406 153.42,114.78L153.42,139.78C153.408,140.147 153.537,140.505 153.78,140.78C154.028,141.073 154.396,141.239 154.78,141.23C155.155,141.237 155.518,141.089 155.78,140.82C156.038,140.552 156.182,140.193 156.18,139.82L156.18,133.42L162.27,133.42C163.592,133.428 164.902,133.166 166.12,132.65C167.283,132.149 168.339,131.43 169.23,130.53C170.114,129.612 170.82,128.537 171.31,127.36C171.821,126.12 172.08,124.791 172.07,123.45C172.086,120.807 171.079,118.258 169.26,116.34L169.29,116.35ZM168.82,126.14C168.163,127.852 166.858,129.239 165.19,130C164.295,130.402 163.322,130.604 162.34,130.59L156.21,130.59L156.21,116.25L162.38,116.25C163.357,116.241 164.324,116.449 165.21,116.86C166.037,117.254 166.781,117.804 167.4,118.48C169.281,120.556 169.831,123.528 168.82,126.14Z" style="fill-rule:nonzero;stroke:black;stroke-width:1px;"/>
        <path d="M199.93,114.25C199.741,113.723 199.23,113.374 198.67,113.39C198.102,113.381 197.584,113.724 197.37,114.25L186.91,139.25C186.766,139.602 186.766,139.998 186.91,140.35C187.028,140.707 187.289,141.001 187.63,141.16L187.69,141.16C188.109,141.314 188.577,141.27 188.96,141.04C189.206,140.89 189.393,140.661 189.49,140.39L191.93,134.52L205.49,134.52L207.93,140.44C208.152,140.951 208.663,141.28 209.22,141.27C209.432,141.272 209.641,141.224 209.83,141.13C210.163,140.971 210.411,140.675 210.51,140.32C210.606,139.991 210.588,139.638 210.46,139.32L199.93,114.25ZM193,131.66L198.65,118.12L204.25,131.66L193,131.66Z" style="fill-rule:nonzero;stroke:black;stroke-width:1px;"/>
        <path d="M249.75,113.39C249.37,113.38 249.004,113.537 248.75,113.82C248.493,114.09 248.35,114.448 248.35,114.82L248.35,135.6L232,113.94C231.734,113.597 231.324,113.394 230.89,113.39C230.51,113.382 230.145,113.539 229.89,113.82C229.632,114.088 229.488,114.447 229.49,114.82L229.49,139.82C229.487,140.195 229.635,140.555 229.9,140.82C230.435,141.354 231.315,141.354 231.85,140.82C232.111,140.553 232.255,140.193 232.25,139.82L232.25,118.9L248.71,140.76L248.78,140.83L248.89,140.93C249.083,141.138 249.356,141.255 249.64,141.25L250,141.25C250.325,141.2 250.62,141.032 250.83,140.78C251.058,140.517 251.18,140.178 251.17,139.83L251.17,114.83C251.176,114.464 251.048,114.108 250.81,113.83C250.543,113.528 250.152,113.366 249.75,113.39Z" style="fill-rule:nonzero;stroke:black;stroke-width:1px;"/>
        <path d="M286.46,127.92C285.629,127.289 284.722,126.765 283.76,126.36C282.76,125.94 281.76,125.54 280.68,125.16C280.12,125 279.48,124.8 278.76,124.56C278.085,124.337 277.438,124.039 276.83,123.67C276.263,123.333 275.764,122.892 275.36,122.37C274.985,121.858 274.795,121.234 274.82,120.6C274.815,119.937 274.988,119.284 275.32,118.71C275.649,118.168 276.085,117.699 276.6,117.33C277.136,116.956 277.731,116.676 278.36,116.5C278.965,116.326 279.591,116.235 280.22,116.23C281.275,116.224 282.32,116.435 283.29,116.85C284.313,117.338 285.184,118.095 285.81,119.04L285.88,119.11C286.382,119.602 287.198,119.602 287.7,119.11C287.868,118.933 287.994,118.721 288.07,118.49C288.192,118.158 288.151,117.788 287.96,117.49C287.589,116.83 287.124,116.227 286.58,115.7C286.034,115.181 285.418,114.74 284.75,114.39C284.061,114.053 283.337,113.795 282.59,113.62C280.851,113.207 279.031,113.28 277.33,113.83C276.39,114.143 275.508,114.609 274.72,115.21C273.934,115.822 273.28,116.587 272.8,117.46C272.281,118.417 272.02,119.492 272.04,120.58C272.011,121.634 272.281,122.674 272.82,123.58C273.326,124.39 273.985,125.093 274.76,125.65C275.547,126.205 276.4,126.658 277.3,127C278.2,127.34 279.08,127.64 279.93,127.88C280.78,128.12 281.57,128.47 282.38,128.8C283.118,129.083 283.819,129.452 284.47,129.9C285.033,130.279 285.513,130.769 285.88,131.34C286.235,131.919 286.413,132.591 286.39,133.27C286.429,134.87 285.723,136.401 284.48,137.41C283.883,137.882 283.206,138.241 282.48,138.47C280.436,139.102 278.219,138.859 276.36,137.8C275.804,137.487 275.299,137.093 274.86,136.63C274.443,136.191 274.105,135.684 273.86,135.13C273.862,135.107 273.862,135.083 273.86,135.06C273.627,134.598 273.166,134.293 272.65,134.26C272.428,134.27 272.21,134.324 272.01,134.42C271.722,134.569 271.491,134.808 271.35,135.1C271.176,135.493 271.198,135.946 271.41,136.32C271.728,137.112 272.185,137.84 272.76,138.47C273.361,139.131 274.055,139.7 274.82,140.16C276.453,141.155 278.328,141.684 280.24,141.69C281.372,141.692 282.496,141.496 283.56,141.11C284.608,140.73 285.578,140.16 286.42,139.43C288.196,137.864 289.202,135.598 289.17,133.23C289.2,132.139 288.941,131.059 288.42,130.1C287.918,129.25 287.252,128.509 286.46,127.92Z" style="fill-rule:nonzero;stroke:black;stroke-width:1px;"/>
        <path d="M325.23,130.14C324.725,129.269 324.044,128.513 323.23,127.92C322.399,127.289 321.492,126.765 320.53,126.36C319.53,125.94 318.53,125.54 317.45,125.16C316.877,125 316.237,124.8 315.53,124.56C314.855,124.337 314.208,124.039 313.6,123.67C313.031,123.336 312.532,122.894 312.13,122.37C311.751,121.86 311.56,121.235 311.59,120.6C311.584,119.937 311.756,119.284 312.09,118.71C312.413,118.164 312.85,117.693 313.37,117.33C313.903,116.958 314.495,116.678 315.12,116.5C315.725,116.327 316.351,116.236 316.98,116.23C318.035,116.222 319.081,116.433 320.05,116.85C321.078,117.334 321.953,118.092 322.58,119.04L322.65,119.11C323.149,119.601 323.961,119.601 324.46,119.11C324.631,118.934 324.76,118.722 324.84,118.49C324.962,118.158 324.921,117.788 324.73,117.49C324.359,116.827 323.89,116.224 323.34,115.7C322.795,115.179 322.179,114.737 321.51,114.39C320.822,114.05 320.097,113.792 319.35,113.62C317.614,113.207 315.797,113.279 314.1,113.83C313.158,114.138 312.275,114.605 311.49,115.21C310.703,115.824 310.047,116.589 309.56,117.46C309.049,118.419 308.791,119.493 308.81,120.58C308.781,121.634 309.051,122.674 309.59,123.58C310.095,124.387 310.75,125.09 311.52,125.65C312.309,126.212 313.166,126.672 314.07,127.02C314.96,127.36 315.84,127.66 316.69,127.9C317.54,128.14 318.34,128.5 319.15,128.82C319.887,129.105 320.588,129.474 321.24,129.92C321.801,130.301 322.281,130.791 322.65,131.36C322.998,131.942 323.171,132.612 323.15,133.29C323.199,134.89 322.495,136.424 321.25,137.43C320.654,137.903 319.976,138.263 319.25,138.49C317.869,138.933 316.388,138.965 314.99,138.58C314.342,138.412 313.719,138.156 313.14,137.82C312.583,137.51 312.077,137.115 311.64,136.65C311.227,136.208 310.889,135.701 310.64,135.15L310.64,135.08C310.402,134.618 309.938,134.314 309.42,134.28C309.201,134.291 308.987,134.345 308.79,134.44C308.502,134.589 308.271,134.828 308.13,135.12C307.953,135.511 307.972,135.964 308.18,136.34C308.505,137.13 308.965,137.858 309.54,138.49C310.141,139.151 310.835,139.72 311.6,140.18C313.23,141.173 315.101,141.702 317.01,141.71C318.145,141.713 319.273,141.517 320.34,141.13C321.386,140.751 322.352,140.181 323.19,139.45C324.03,138.708 324.71,137.803 325.19,136.79C325.703,135.681 325.959,134.471 325.94,133.25C325.979,132.169 325.734,131.097 325.23,130.14Z" style="fill-rule:nonzero;stroke:black;stroke-width:1px;"/>
        <path d="M101.67,140.8L111.86,128.43C112.364,127.816 112.364,126.924 111.86,126.31L101.57,113.91C101.332,113.599 100.961,113.418 100.57,113.42C100.231,113.416 99.904,113.545 99.66,113.78C99.384,114.042 99.216,114.4 99.19,114.78C99.146,115.166 99.27,115.552 99.53,115.84L109.05,127.3C109.102,127.368 109.102,127.462 109.05,127.53L99.68,138.9C99.417,139.168 99.263,139.525 99.25,139.9C99.248,140.285 99.416,140.651 99.71,140.9C99.964,141.125 100.291,141.249 100.63,141.25C101.025,141.257 101.405,141.093 101.67,140.8Z" style="fill-rule:nonzero;stroke:black;stroke-width:1px;"/>
        <path d="M134.11,138.86L124.71,127.46C124.651,127.395 124.651,127.295 124.71,127.23L134.21,115.79C134.482,115.5 134.614,115.105 134.57,114.71C134.544,114.33 134.376,113.972 134.1,113.71C133.856,113.475 133.529,113.346 133.19,113.35C132.799,113.348 132.428,113.529 132.19,113.84L121.9,126.24C121.396,126.854 121.396,127.746 121.9,128.36L132.12,140.76C132.616,141.31 133.474,141.36 134.03,140.87C134.332,140.626 134.509,140.258 134.51,139.87C134.51,139.495 134.366,139.134 134.11,138.86Z" style="fill-rule:nonzero;stroke:black;stroke-width:1px;"/>
    </g>
</svg>
